<svg xmlns="http://www.w3.org/2000/svg" width="80" height="80" viewBox="0 0 80 80"><defs><mask id="u0eub" width="2" height="2" x="-1" y="-1"><path fill="#fff" d="M15 5h50v50H15z"/><path d="M40 5c13.807 0 25 11.193 25 25S53.807 55 40 55 15 43.807 15 30 26.193 5 40 5z"/></mask><filter id="u0eua" width="106" height="116" x="-13" y="-23" filterUnits="userSpaceOnUse"><feOffset dy="10" in="SourceGraphic" result="FeOffset1023Out"/><feGaussianBlur in="FeOffset1023Out" result="FeGaussianBlur1024Out" stdDeviation="7.2 7.2"/></filter></defs><g><g><g filter="url(#u0eua)"><path fill="none" d="M40 5c13.807 0 25 11.193 25 25S53.807 55 40 55 15 43.807 15 30 26.193 5 40 5z" mask="url(&quot;#u0eub&quot;)"/><path fill="#ba0000" fill-opacity=".4" d="M40 5c13.807 0 25 11.193 25 25S53.807 55 40 55 15 43.807 15 30 26.193 5 40 5z"/></g><path fill="#ba0000" d="M40 5c13.807 0 25 11.193 25 25S53.807 55 40 55 15 43.807 15 30 26.193 5 40 5z"/></g></g></svg>